<svg xmlns="http://www.w3.org/2000/svg" xmlns:xlink="http://www.w3.org/1999/xlink" width="68.314" height="98.597" viewBox="0 0 68.314 98.597"><defs><path id="a" d="M0 10.5h68.314v88.097H0z"/></defs><clipPath id="b"><use xlink:href="#a" overflow="visible"/></clipPath><path clip-path="url(#b)" fill="none" stroke="#64D2AF" stroke-linecap="round" stroke-linejoin="round" stroke-miterlimit="10" d="M21.418 18.165l-4.329-4.329c-3.781-3.781-9.968-3.781-13.749 0l-.005.005c-3.781 3.781-3.781 9.967 0 13.748l4.329 4.33M35.76 31.33l3.741-3.741c3.781-3.781 3.781-9.968 0-13.749l-.005-.005c-3.781-3.781-9.967-3.781-13.748 0l-2.062 2.062M7.665 31.918l13.754 13.754 7.062-7.063"/><path clip-path="url(#b)" fill="none" stroke="#E5F1FF" stroke-linecap="round" stroke-linejoin="round" stroke-miterlimit="10" d="M28.481 98.097h-.003c-6.534 0-11.83-5.296-11.83-11.83v-4.42h11.833v16.25z"/><path clip-path="url(#b)" fill="none" stroke="#E5F1FF" stroke-linecap="round" stroke-linejoin="round" stroke-miterlimit="10" d="M26.189 81.847h-9.542V60.47c0-.85.69-1.54 1.54-1.54h.002c4.4 0 8 3.601 8 8v14.917zM28.481 98.097h23.333c8.8 0 16-7.2 16-16V69.764H28.481v28.333z"/><path clip-path="url(#b)" fill="none" stroke="#E5F1FF" stroke-linecap="round" stroke-linejoin="round" stroke-miterlimit="10" d="M38.314 69.764h-9.833V35.755c0-2.75 2.25-5 5-5h.003a4.844 4.844 0 0 1 4.83 4.83v34.179z"/><path clip-path="url(#b)" fill="none" stroke="#E5F1FF" stroke-miterlimit="10" d="M38.314 69.764h-9.833V35.755c0-2.75 2.25-5 5-5h.003a4.844 4.844 0 0 1 4.83 4.83v34.179z"/><path clip-path="url(#b)" fill="none" stroke="#E5F1FF" stroke-linecap="round" stroke-linejoin="round" stroke-miterlimit="10" d="M48.147 69.764h-9.833V52.098c0-2.2 1.8-4 4-4h1.833c2.2 0 4 1.8 4 4v17.666zM57.981 69.764h-9.833V55.265c0-2.2 1.8-4 4-4h1.833c2.199 0 4 1.8 4 4v14.499z"/><path clip-path="url(#b)" fill="none" stroke="#E5F1FF" stroke-linecap="round" stroke-linejoin="round" stroke-miterlimit="10" d="M67.814 69.764h-9.833V57.848c0-2.2 1.8-4 4-4h1.833c2.2 0 4 1.8 4 4v11.916z"/><path clip-path="url(#b)" fill="none" stroke="#64D2AF" stroke-linecap="round" stroke-linejoin="round" stroke-miterlimit="10" d="M6.325 30.578h9.99l4.713-4.714 4.452 4.891 3-3.25"/></svg>