<svg xmlns="http://www.w3.org/2000/svg" xmlns:xlink="http://www.w3.org/1999/xlink" width="110.251" height="106" viewBox="0 0 110.251 106"><defs><path id="a" d="M0 16.822h110.251V98H0z"/></defs><clipPath id="b"><use xlink:href="#a" overflow="visible"/></clipPath><path clip-path="url(#b)" fill="none" stroke="#E5F1FF" stroke-linecap="round" stroke-linejoin="round" stroke-miterlimit="10" d="M38.79 97.346V87.133s-.192-6.335-7.679-13.056c-4.244-3.808-8.064-5.856-8.064-22.653 0-15.551 10.751-29.374 35.517-29.374 24.767 0 28.99 22.655 28.99 26.302 0 3.648 2.88 15.743 4.416 17.471 1.536 1.729-.191 5.376-3.072 5.376h-4.8v10.367s.576 8.063-11.902 8.063L68.048 97.5"/><path clip-path="url(#b)" fill="none" stroke="#595E63" stroke-width=".6" stroke-linecap="round" stroke-linejoin="round" stroke-miterlimit="10" d="M85.994 76.015c7.502 8.933 11.102 15.036 9.533 16.703-2.82 2.999-22.457-10.886-43.859-31.013S15.203 22.831 18.024 19.832c1.43-1.521 7.184 1.3 15.299 7.074"/><path clip-path="url(#b)" fill="none" stroke="#595E63" stroke-width=".6" stroke-linecap="round" stroke-linejoin="round" stroke-miterlimit="10" d="M78.18 25.686c8.391-6.93 13.438-9.668 15.038-8.162 2.999 2.82-10.886 22.457-31.013 43.859-20.127 21.4-38.874 36.465-41.873 33.644-1.76-1.655 2.294-9.102 10.013-19.298"/><path clip-path="url(#b)" fill="none" stroke="#595E63" stroke-width=".6" stroke-linecap="round" stroke-linejoin="round" stroke-miterlimit="10" d="M89.394 47.329c12.425 1.504 20.456 4.182 20.557 7.464.174 5.682-23.49 11.018-52.855 11.918-29.366.902-53.312-2.973-53.487-8.653-.094-3.075 6.799-6.05 17.801-8.274"/><path clip-path="url(#b)" fill="#64D2AF" d="M49.619 56.275a3.608 3.608 0 1 1-7.215 0 3.608 3.608 0 0 1 7.215 0M7.216 57.806a3.608 3.608 0 1 1-7.215 0 3.608 3.608 0 0 1 7.215 0M92.822 28.269a3.607 3.607 0 1 1-7.215 0 3.608 3.608 0 0 1 7.215 0"/></svg>