<?xml version="1.0" encoding="utf-8"?>
<!-- Generator: Adobe Illustrator 16.0.0, SVG Export Plug-In . SVG Version: 6.00 Build 0)  -->
<!DOCTYPE svg PUBLIC "-//W3C//DTD SVG 1.1//EN" "http://www.w3.org/Graphics/SVG/1.1/DTD/svg11.dtd">
<svg version="1.1" id="Calque_1" xmlns="http://www.w3.org/2000/svg" xmlns:xlink="http://www.w3.org/1999/xlink" x="0px" y="0px"
	 width="78.475px" height="106px" viewBox="0 -4.121 78.475 106" enable-background="new 0 -4.121 78.475 106" xml:space="preserve"
	>
<g>
	<g>
		<defs>
			<rect id="SVGID_1_" x="0" y="22.999" width="78.475" height="67.759"/>
		</defs>
		<clipPath id="SVGID_2_">
			<use xlink:href="#SVGID_1_"  overflow="visible"/>
		</clipPath>
		
			<path clip-path="url(#SVGID_2_)" fill="none" stroke="#E5F1FF" stroke-linecap="round" stroke-linejoin="round" stroke-miterlimit="10" d="
			M0.5,90.258V50.104c0-1.622,1.314-2.938,2.936-2.938H43.73c1.621,0,2.938,1.314,2.938,2.938v40.152"/>
	</g>
	<g>
		<defs>
			<rect id="SVGID_3_" x="0" y="22.999" width="78.475" height="67.759"/>
		</defs>
		<clipPath id="SVGID_4_">
			<use xlink:href="#SVGID_3_"  overflow="visible"/>
		</clipPath>
		
			<path clip-path="url(#SVGID_4_)" fill="none" stroke="#E5F1FF" stroke-linecap="round" stroke-linejoin="round" stroke-miterlimit="10" d="
			M52.918,90.254V78.478c0-0.726,0.588-1.312,1.312-1.312l22.437,0.031c0.726,0.002,1.312,0.592,1.309,1.316l-0.057,11.65"/>
	</g>
	<g>
		<defs>
			<rect id="SVGID_5_" x="0" y="22.999" width="78.475" height="67.759"/>
		</defs>
		<clipPath id="SVGID_6_">
			<use xlink:href="#SVGID_5_"  overflow="visible"/>
		</clipPath>
		
			<path clip-path="url(#SVGID_6_)" fill="none" stroke="#E5F1FF" stroke-linecap="round" stroke-linejoin="round" stroke-miterlimit="10" d="
			M39.562,40.316H7.605c-1.104,0-2,0.896-2,2v4.851h35.957v-4.851C41.562,41.211,40.667,40.316,39.562,40.316z"/>
	</g>
	<g>
		<defs>
			<rect id="SVGID_7_" x="0" y="22.999" width="78.475" height="67.759"/>
		</defs>
		<clipPath id="SVGID_8_">
			<use xlink:href="#SVGID_7_"  overflow="visible"/>
		</clipPath>
		
			<path clip-path="url(#SVGID_8_)" fill="none" stroke="#E5F1FF" stroke-linecap="round" stroke-linejoin="round" stroke-miterlimit="10" d="
			M30.624,33.465h-14.08c-1.104,0-2,0.896-2,2v4.852h18.08v-4.852C32.624,34.36,31.729,33.465,30.624,33.465z"/>
	</g>
	<g>
		<defs>
			<rect id="SVGID_9_" x="0" y="22.999" width="78.475" height="67.759"/>
		</defs>
		<clipPath id="SVGID_10_">
			<use xlink:href="#SVGID_9_"  overflow="visible"/>
		</clipPath>
		<rect x="13.583" y="65.667" clip-path="url(#SVGID_10_)" fill="#E5F1FF" width="7.75" height="1.25"/>
	</g>
	<g>
		<defs>
			<rect id="SVGID_11_" x="0" y="22.999" width="78.475" height="67.759"/>
		</defs>
		<clipPath id="SVGID_12_">
			<use xlink:href="#SVGID_11_"  overflow="visible"/>
		</clipPath>
		<rect x="13.583" y="70.383" clip-path="url(#SVGID_12_)" fill="#E5F1FF" width="7.75" height="1.25"/>
	</g>
	<g>
		<defs>
			<rect id="SVGID_13_" x="0" y="22.999" width="78.475" height="67.759"/>
		</defs>
		<clipPath id="SVGID_14_">
			<use xlink:href="#SVGID_13_"  overflow="visible"/>
		</clipPath>
		<rect x="13.583" y="75.1" clip-path="url(#SVGID_14_)" fill="#E5F1FF" width="7.75" height="1.25"/>
	</g>
	<g>
		<defs>
			<rect id="SVGID_15_" x="0" y="22.999" width="78.475" height="67.759"/>
		</defs>
		<clipPath id="SVGID_16_">
			<use xlink:href="#SVGID_15_"  overflow="visible"/>
		</clipPath>
		<rect x="25.833" y="65.667" clip-path="url(#SVGID_16_)" fill="#E5F1FF" width="7.75" height="1.25"/>
	</g>
	<g>
		<defs>
			<rect id="SVGID_17_" x="0" y="22.999" width="78.475" height="67.759"/>
		</defs>
		<clipPath id="SVGID_18_">
			<use xlink:href="#SVGID_17_"  overflow="visible"/>
		</clipPath>
		<rect x="25.833" y="70.383" clip-path="url(#SVGID_18_)" fill="#E5F1FF" width="7.75" height="1.25"/>
	</g>
	<g>
		<defs>
			<rect id="SVGID_19_" x="0" y="22.999" width="78.475" height="67.759"/>
		</defs>
		<clipPath id="SVGID_20_">
			<use xlink:href="#SVGID_19_"  overflow="visible"/>
		</clipPath>
		<rect x="25.833" y="75.1" clip-path="url(#SVGID_20_)" fill="#E5F1FF" width="7.75" height="1.25"/>
	</g>
	<g>
		<defs>
			<rect id="SVGID_21_" x="0" y="22.999" width="78.475" height="67.759"/>
		</defs>
		<clipPath id="SVGID_22_">
			<use xlink:href="#SVGID_21_"  overflow="visible"/>
		</clipPath>
		<rect x="23.167" y="22.999" clip-path="url(#SVGID_22_)" fill="#E5F1FF" width="0.833" height="10.466"/>
	</g>
	<g>
		<defs>
			<rect id="SVGID_23_" x="0" y="22.999" width="78.475" height="67.759"/>
		</defs>
		<clipPath id="SVGID_24_">
			<use xlink:href="#SVGID_23_"  overflow="visible"/>
		</clipPath>
		
			<line clip-path="url(#SVGID_24_)" fill="none" stroke="#FFFFFF" stroke-linecap="round" stroke-linejoin="round" stroke-miterlimit="10" x1="57.105" y1="60.958" x2="57.105" y2="71.633"/>
	</g>
	<g>
		<defs>
			<rect id="SVGID_25_" x="0" y="22.999" width="78.475" height="67.759"/>
		</defs>
		<clipPath id="SVGID_26_">
			<use xlink:href="#SVGID_25_"  overflow="visible"/>
		</clipPath>
		
			<line clip-path="url(#SVGID_26_)" fill="none" stroke="#6B6D70" stroke-linecap="round" stroke-linejoin="round" stroke-miterlimit="10" x1="57.105" y1="47.167" x2="57.105" y2="61.227"/>
	</g>
	<g>
		<defs>
			<rect id="SVGID_27_" x="0" y="22.999" width="78.475" height="67.759"/>
		</defs>
		<clipPath id="SVGID_28_">
			<use xlink:href="#SVGID_27_"  overflow="visible"/>
		</clipPath>
		<path clip-path="url(#SVGID_28_)" fill="#878A8E" d="M59.376,63.228c0,1.254-1.018,2.271-2.271,2.271s-2.271-1.017-2.271-2.271
			s1.017-2.271,2.271-2.271S59.376,61.975,59.376,63.228"/>
	</g>
	<g>
		<defs>
			<rect id="SVGID_29_" x="0" y="22.999" width="78.475" height="67.759"/>
		</defs>
		<clipPath id="SVGID_30_">
			<use xlink:href="#SVGID_29_"  overflow="visible"/>
		</clipPath>
		
			<circle clip-path="url(#SVGID_30_)" fill="none" stroke="#64D2AF" stroke-linecap="round" stroke-linejoin="round" stroke-miterlimit="10" cx="57.105" cy="63.228" r="2.271"/>
	</g>
	<g>
		<defs>
			<rect id="SVGID_31_" x="0" y="22.999" width="78.475" height="67.759"/>
		</defs>
		<clipPath id="SVGID_32_">
			<use xlink:href="#SVGID_31_"  overflow="visible"/>
		</clipPath>
		
			<line clip-path="url(#SVGID_32_)" fill="none" stroke="#FFFFFF" stroke-linecap="round" stroke-linejoin="round" stroke-miterlimit="10" x1="65.856" y1="57.311" x2="65.856" y2="71.633"/>
	</g>
	<g>
		<defs>
			<rect id="SVGID_33_" x="0" y="22.999" width="78.475" height="67.759"/>
		</defs>
		<clipPath id="SVGID_34_">
			<use xlink:href="#SVGID_33_"  overflow="visible"/>
		</clipPath>
		
			<line clip-path="url(#SVGID_34_)" fill="none" stroke="#6B6D70" stroke-linecap="round" stroke-linejoin="round" stroke-miterlimit="10" x1="65.856" y1="47.167" x2="65.856" y2="56.417"/>
	</g>
	<g>
		<defs>
			<rect id="SVGID_35_" x="0" y="22.999" width="78.475" height="67.759"/>
		</defs>
		<clipPath id="SVGID_36_">
			<use xlink:href="#SVGID_35_"  overflow="visible"/>
		</clipPath>
		<path clip-path="url(#SVGID_36_)" fill="#878A8E" d="M68.128,55.124c0,1.254-1.019,2.271-2.271,2.271s-2.271-1.018-2.271-2.271
			c0-1.252,1.017-2.271,2.271-2.271S68.128,53.87,68.128,55.124"/>
	</g>
	<g>
		<defs>
			<rect id="SVGID_37_" x="0" y="22.999" width="78.475" height="67.759"/>
		</defs>
		<clipPath id="SVGID_38_">
			<use xlink:href="#SVGID_37_"  overflow="visible"/>
		</clipPath>
		
			<circle clip-path="url(#SVGID_38_)" fill="none" stroke="#64D2AF" stroke-linecap="round" stroke-linejoin="round" stroke-miterlimit="10" cx="65.857" cy="55.124" r="2.271"/>
	</g>
	<g>
		<defs>
			<rect id="SVGID_39_" x="0" y="22.999" width="78.475" height="67.759"/>
		</defs>
		<clipPath id="SVGID_40_">
			<use xlink:href="#SVGID_39_"  overflow="visible"/>
		</clipPath>
		
			<line clip-path="url(#SVGID_40_)" fill="none" stroke="#FFFFFF" stroke-linecap="round" stroke-linejoin="round" stroke-miterlimit="10" x1="74.608" y1="60.958" x2="74.608" y2="71.633"/>
	</g>
	<g>
		<defs>
			<rect id="SVGID_41_" x="0" y="22.999" width="78.475" height="67.759"/>
		</defs>
		<clipPath id="SVGID_42_">
			<use xlink:href="#SVGID_41_"  overflow="visible"/>
		</clipPath>
		
			<line clip-path="url(#SVGID_42_)" fill="none" stroke="#6B6D70" stroke-linecap="round" stroke-linejoin="round" stroke-miterlimit="10" x1="74.608" y1="47.167" x2="74.608" y2="59.852"/>
	</g>
	<g>
		<defs>
			<rect id="SVGID_43_" x="0" y="22.999" width="78.475" height="67.759"/>
		</defs>
		<clipPath id="SVGID_44_">
			<use xlink:href="#SVGID_43_"  overflow="visible"/>
		</clipPath>
		<path clip-path="url(#SVGID_44_)" fill="#878A8E" d="M76.879,61.228c0,1.254-1.018,2.271-2.271,2.271s-2.271-1.017-2.271-2.271
			s1.018-2.271,2.271-2.271S76.879,59.975,76.879,61.228"/>
	</g>
	<g>
		<defs>
			<rect id="SVGID_45_" x="0" y="22.999" width="78.475" height="67.759"/>
		</defs>
		<clipPath id="SVGID_46_">
			<use xlink:href="#SVGID_45_"  overflow="visible"/>
		</clipPath>
		
			<circle clip-path="url(#SVGID_46_)" fill="none" stroke="#64D2AF" stroke-linecap="round" stroke-linejoin="round" stroke-miterlimit="10" cx="74.608" cy="61.228" r="2.271"/>
	</g>
</g>
</svg>
