<?xml version="1.0" encoding="utf-8"?>
<!-- Generator: Adobe Illustrator 16.0.0, SVG Export Plug-In . SVG Version: 6.00 Build 0)  -->
<!DOCTYPE svg PUBLIC "-//W3C//DTD SVG 1.1//EN" "http://www.w3.org/Graphics/SVG/1.1/DTD/svg11.dtd">
<svg version="1.1" id="Calque_1" xmlns="http://www.w3.org/2000/svg" xmlns:xlink="http://www.w3.org/1999/xlink" x="0px" y="0px"
	 width="400px" height="100px" viewBox="0 0 400 100" enable-background="new 0 0 400 100" xml:space="preserve">
<g>
	<polygon fill="#F1F3F5" points="50,0 25,6.699 6.698,25 0,50 6.698,75 25,93.301 50,100 75,93.301 93.302,75 100,50 93.302,25 
		75,6.699 	"/>
	<g>
		<path fill-rule="evenodd" clip-rule="evenodd" fill="none" stroke="#B0B0B0" stroke-miterlimit="10" d="M50,29.5
			c6.351,0,11.5,5.148,11.5,11.5S56.351,52.5,50,52.5c-6.351,0-11.5-5.148-11.5-11.5S43.649,29.5,50,29.5z"/>
		<path fill-rule="evenodd" clip-rule="evenodd" fill="#B0B0B0" d="M49.5,52.5h1v18h-1V52.5z"/>
	</g>
</g>
<g>
	<polygon fill="#F1F3F5" points="150,0 125,6.699 106.698,25 100,50 106.698,75 125,93.301 150,100 174.999,93.301 193.301,75 
		200,50 193.301,25 174.999,6.699 	"/>
	<polyline fill="none" stroke="#B0B0B0" stroke-miterlimit="10" points="140.5,50.5 146.5,56.5 159.5,43.5 	"/>
</g>
<g>
	<polygon fill="#F1F3F5" points="250,0 225,6.699 206.698,25 200,50 206.698,75 225,93.301 250,100 274.999,93.301 293.301,75 
		300,50 293.301,25 274.999,6.699 	"/>
	<g>
		<path fill="#B0B0B0" d="M248.095,26.595h3.811v41.809h-3.811V26.595z M247,69.5h6v-44h-6V69.5z"/>
		<polygon fill="#B0B0B0" points="247,70.5 250,74.5 253,70.5 		"/>
	</g>
</g>
<g>
	<polygon fill="#F1F3F5" points="350,0 325,6.699 306.698,25 300,50 306.698,75 325,93.301 350,100 374.999,93.301 393.301,75 
		400,50 393.301,25 374.999,6.699 	"/>
	<path fill="none" stroke="#B0B0B0" stroke-miterlimit="10" d="M343.708,43.87l6.129,6.13l-6.129,6.129 M350.162,56.13l6.129-6.13
		l-6.129-6.129"/>
</g>
</svg>
