<?xml version="1.0" encoding="utf-8"?>
<!-- Generator: Adobe Illustrator 16.0.0, SVG Export Plug-In . SVG Version: 6.00 Build 0)  -->
<!DOCTYPE svg PUBLIC "-//W3C//DTD SVG 1.1//EN" "http://www.w3.org/Graphics/SVG/1.1/DTD/svg11.dtd">
<svg version="1.1" id="Calque_1" xmlns="http://www.w3.org/2000/svg" xmlns:xlink="http://www.w3.org/1999/xlink" x="0px" y="0px"
	 width="110.251px" height="106px" viewBox="0 0 110.251 106" enable-background="new 0 0 110.251 106" xml:space="preserve">
<g>
	<defs>
		<rect id="SVGID_1_" x="0" y="16.822" width="110.251" height="81.178"/>
	</defs>
	<clipPath id="SVGID_2_">
		<use xlink:href="#SVGID_1_"  overflow="visible"/>
	</clipPath>
	
		<path clip-path="url(#SVGID_2_)" fill="none" stroke="#E5F1FF" stroke-linecap="round" stroke-linejoin="round" stroke-miterlimit="10" d="
		M38.79,97.346V87.133c0,0-0.192-6.335-7.679-13.056c-4.244-3.808-8.064-5.856-8.064-22.653c0-15.551,10.751-29.374,35.517-29.374
		c24.767,0,28.99,22.655,28.99,26.302c0,3.648,2.88,15.743,4.416,17.471c1.536,1.729-0.191,5.376-3.072,5.376h-4.8v10.367
		c0,0,0.576,8.063-11.902,8.063L68.048,97.5"/>
	
		<path clip-path="url(#SVGID_2_)" fill="none" stroke="#595E63" stroke-width="0.6" stroke-linecap="round" stroke-linejoin="round" stroke-miterlimit="10" d="
		M85.994,76.015c7.502,8.933,11.102,15.036,9.533,16.703c-2.82,2.999-22.457-10.886-43.859-31.013S15.203,22.831,18.024,19.832
		c1.43-1.521,7.184,1.3,15.299,7.074"/>
	
		<path clip-path="url(#SVGID_2_)" fill="none" stroke="#595E63" stroke-width="0.6" stroke-linecap="round" stroke-linejoin="round" stroke-miterlimit="10" d="
		M78.18,25.686c8.391-6.93,13.438-9.668,15.038-8.162c2.999,2.82-10.886,22.457-31.013,43.859
		c-20.127,21.4-38.874,36.465-41.873,33.644c-1.76-1.655,2.294-9.102,10.013-19.298"/>
	
		<path clip-path="url(#SVGID_2_)" fill="none" stroke="#595E63" stroke-width="0.6" stroke-linecap="round" stroke-linejoin="round" stroke-miterlimit="10" d="
		M89.394,47.329c12.425,1.504,20.456,4.182,20.557,7.464c0.174,5.682-23.49,11.018-52.855,11.918
		C27.73,67.613,3.784,63.738,3.609,58.058c-0.094-3.075,6.799-6.05,17.801-8.274"/>
	<path clip-path="url(#SVGID_2_)" fill="#64D2AF" d="M49.619,56.275c0,1.993-1.615,3.608-3.608,3.608
		c-1.992,0-3.608-1.615-3.608-3.608c0-1.993,1.616-3.608,3.608-3.608C48.004,52.667,49.619,54.282,49.619,56.275"/>
	<path clip-path="url(#SVGID_2_)" fill="#64D2AF" d="M7.216,57.806c0,1.993-1.615,3.608-3.608,3.608C1.616,61.414,0,59.799,0,57.806
		c0-1.993,1.616-3.608,3.608-3.608C5.601,54.198,7.216,55.813,7.216,57.806"/>
	<path clip-path="url(#SVGID_2_)" fill="#64D2AF" d="M92.822,28.269c0,1.993-1.614,3.608-3.607,3.608
		c-1.992,0-3.608-1.615-3.608-3.608s1.616-3.608,3.608-3.608C91.208,24.661,92.822,26.275,92.822,28.269"/>
</g>
</svg>
