<?xml version="1.0" encoding="utf-8"?>
<!-- Generator: Adobe Illustrator 16.0.0, SVG Export Plug-In . SVG Version: 6.00 Build 0)  -->
<!DOCTYPE svg PUBLIC "-//W3C//DTD SVG 1.1//EN" "http://www.w3.org/Graphics/SVG/1.1/DTD/svg11.dtd">
<svg version="1.1" id="Calque_1" xmlns="http://www.w3.org/2000/svg" xmlns:xlink="http://www.w3.org/1999/xlink" x="0px" y="0px"
	 width="68.314px" height="98.597px" viewBox="0 0 68.314 98.597" enable-background="new 0 0 68.314 98.597" xml:space="preserve">
<g>
	<defs>
		<rect id="SVGID_1_" y="10.5" width="68.314" height="88.097"/>
	</defs>
	<clipPath id="SVGID_2_">
		<use xlink:href="#SVGID_1_"  overflow="visible"/>
	</clipPath>
	
		<path clip-path="url(#SVGID_2_)" fill="none" stroke="#64D2AF" stroke-linecap="round" stroke-linejoin="round" stroke-miterlimit="10" d="
		M21.418,18.165l-4.329-4.329c-3.781-3.781-9.968-3.781-13.749,0l-0.005,0.005c-3.781,3.781-3.781,9.967,0,13.748l4.329,4.33"/>
	
		<path clip-path="url(#SVGID_2_)" fill="none" stroke="#64D2AF" stroke-linecap="round" stroke-linejoin="round" stroke-miterlimit="10" d="
		M35.76,31.33l3.741-3.741c3.781-3.781,3.781-9.968,0-13.749l-0.005-0.005c-3.781-3.781-9.967-3.781-13.748,0l-2.062,2.062"/>
	
		<polyline clip-path="url(#SVGID_2_)" fill="none" stroke="#64D2AF" stroke-linecap="round" stroke-linejoin="round" stroke-miterlimit="10" points="
		7.665,31.918 21.419,45.672 28.481,38.609 	"/>
	
		<path clip-path="url(#SVGID_2_)" fill="none" stroke="#E5F1FF" stroke-linecap="round" stroke-linejoin="round" stroke-miterlimit="10" d="
		M28.481,98.097h-0.003c-6.534,0-11.83-5.296-11.83-11.83v-4.42h11.833V98.097z"/>
	
		<path clip-path="url(#SVGID_2_)" fill="none" stroke="#E5F1FF" stroke-linecap="round" stroke-linejoin="round" stroke-miterlimit="10" d="
		M26.189,81.847h-9.542V60.47c0-0.85,0.69-1.54,1.54-1.54h0.002c4.4,0,8,3.601,8,8V81.847z"/>
	
		<path clip-path="url(#SVGID_2_)" fill="none" stroke="#E5F1FF" stroke-linecap="round" stroke-linejoin="round" stroke-miterlimit="10" d="
		M28.481,98.097h23.333c8.8,0,16-7.2,16-16V69.764H28.481V98.097z"/>
	
		<path clip-path="url(#SVGID_2_)" fill="none" stroke="#E5F1FF" stroke-linecap="round" stroke-linejoin="round" stroke-miterlimit="10" d="
		M38.314,69.764h-9.833V35.755c0-2.75,2.25-5,5-5h0.003c2.656,0,4.83,2.173,4.83,4.83V69.764z"/>
	<path clip-path="url(#SVGID_2_)" fill="none" stroke="#E5F1FF" stroke-miterlimit="10" d="M38.314,69.764h-9.833V35.755
		c0-2.75,2.25-5,5-5h0.003c2.656,0,4.83,2.173,4.83,4.83V69.764z"/>
	
		<path clip-path="url(#SVGID_2_)" fill="none" stroke="#E5F1FF" stroke-linecap="round" stroke-linejoin="round" stroke-miterlimit="10" d="
		M48.147,69.764h-9.833V52.098c0-2.2,1.8-4,4-4h1.833c2.2,0,4,1.8,4,4V69.764z"/>
	
		<path clip-path="url(#SVGID_2_)" fill="none" stroke="#E5F1FF" stroke-linecap="round" stroke-linejoin="round" stroke-miterlimit="10" d="
		M57.981,69.764h-9.833V55.265c0-2.2,1.8-4,4-4h1.833c2.199,0,4,1.8,4,4V69.764z"/>
	
		<path clip-path="url(#SVGID_2_)" fill="none" stroke="#E5F1FF" stroke-linecap="round" stroke-linejoin="round" stroke-miterlimit="10" d="
		M67.814,69.764h-9.833V57.848c0-2.2,1.8-4,4-4h1.833c2.2,0,4,1.8,4,4V69.764z"/>
	
		<polyline clip-path="url(#SVGID_2_)" fill="none" stroke="#64D2AF" stroke-linecap="round" stroke-linejoin="round" stroke-miterlimit="10" points="
		6.325,30.578 16.315,30.578 21.028,25.864 25.48,30.755 28.48,27.505 	"/>
</g>
</svg>
