<svg xmlns="http://www.w3.org/2000/svg" width="400" height="100" viewBox="0 0 400 100"><path fill="#F1F3F5" d="M50 0L25 6.699 6.698 25 0 50l6.698 25L25 93.301 50 100l25-6.699L93.302 75 100 50l-6.698-25L75 6.699z"/><g clip-rule="evenodd"><path fill="none" stroke="#B0B0B0" stroke-miterlimit="10" d="M50 29.5c6.351 0 11.5 5.148 11.5 11.5S56.351 52.5 50 52.5 38.5 47.352 38.5 41 43.649 29.5 50 29.5z"/><path fill-rule="evenodd" fill="#B0B0B0" d="M49.5 52.5h1v18h-1v-18z"/></g><path fill="#F1F3F5" d="M150 0l-25 6.699L106.698 25 100 50l6.698 25L125 93.301 150 100l24.999-6.699L193.301 75 200 50l-6.699-25-18.302-18.301z"/><path fill="none" stroke="#B0B0B0" stroke-miterlimit="10" d="M140.5 50.5l6 6 13-13"/><g><path fill="#F1F3F5" d="M250 0l-25 6.699L206.698 25 200 50l6.698 25L225 93.301 250 100l24.999-6.699L293.301 75 300 50l-6.699-25-18.302-18.301z"/><g fill="#B0B0B0"><path d="M248.095 26.595h3.811v41.809h-3.811V26.595zM247 69.5h6v-44h-6v44zM247 70.5l3 4 3-4z"/></g></g><g><path fill="#F1F3F5" d="M350 0l-25 6.699L306.698 25 300 50l6.698 25L325 93.301 350 100l24.999-6.699L393.301 75 400 50l-6.699-25-18.302-18.301z"/><path fill="none" stroke="#B0B0B0" stroke-miterlimit="10" d="M343.708 43.87l6.129 6.13-6.129 6.129m6.454.001l6.129-6.13-6.129-6.129"/></g></svg>