<svg xmlns="http://www.w3.org/2000/svg" xmlns:xlink="http://www.w3.org/1999/xlink" width="78.475" height="106" viewBox="0 -4.121 78.475 106"><defs><path id="a" d="M0 22.999h78.475v67.759H0z"/></defs><clipPath id="b"><use xlink:href="#a" overflow="visible"/></clipPath><path clip-path="url(#b)" fill="none" stroke="#E5F1FF" stroke-linecap="round" stroke-linejoin="round" stroke-miterlimit="10" d="M.5 90.258V50.104a2.937 2.937 0 0 1 2.936-2.938H43.73a2.938 2.938 0 0 1 2.938 2.938v40.152"/><defs><path id="c" d="M0 22.999h78.475v67.759H0z"/></defs><clipPath id="d"><use xlink:href="#c" overflow="visible"/></clipPath><path clip-path="url(#d)" fill="none" stroke="#E5F1FF" stroke-linecap="round" stroke-linejoin="round" stroke-miterlimit="10" d="M52.918 90.254V78.478c0-.726.588-1.312 1.312-1.312l22.437.031a1.312 1.312 0 0 1 1.309 1.316l-.057 11.65"/><defs><path id="e" d="M0 22.999h78.475v67.759H0z"/></defs><clipPath id="f"><use xlink:href="#e" overflow="visible"/></clipPath><path clip-path="url(#f)" fill="none" stroke="#E5F1FF" stroke-linecap="round" stroke-linejoin="round" stroke-miterlimit="10" d="M39.562 40.316H7.605a2 2 0 0 0-2 2v4.851h35.957v-4.851a2 2 0 0 0-2-2z"/><defs><path id="g" d="M0 22.999h78.475v67.759H0z"/></defs><clipPath id="h"><use xlink:href="#g" overflow="visible"/></clipPath><path clip-path="url(#h)" fill="none" stroke="#E5F1FF" stroke-linecap="round" stroke-linejoin="round" stroke-miterlimit="10" d="M30.624 33.465h-14.08a2 2 0 0 0-2 2v4.852h18.08v-4.852a2 2 0 0 0-2-2z"/><defs><path id="i" d="M0 22.999h78.475v67.759H0z"/></defs><clipPath id="j"><use xlink:href="#i" overflow="visible"/></clipPath><path clip-path="url(#j)" fill="#E5F1FF" d="M13.583 65.667h7.75v1.25h-7.75z"/><defs><path id="k" d="M0 22.999h78.475v67.759H0z"/></defs><clipPath id="l"><use xlink:href="#k" overflow="visible"/></clipPath><path clip-path="url(#l)" fill="#E5F1FF" d="M13.583 70.383h7.75v1.25h-7.75z"/><defs><path id="m" d="M0 22.999h78.475v67.759H0z"/></defs><clipPath id="n"><use xlink:href="#m" overflow="visible"/></clipPath><path clip-path="url(#n)" fill="#E5F1FF" d="M13.583 75.1h7.75v1.25h-7.75z"/><defs><path id="o" d="M0 22.999h78.475v67.759H0z"/></defs><clipPath id="p"><use xlink:href="#o" overflow="visible"/></clipPath><path clip-path="url(#p)" fill="#E5F1FF" d="M25.833 65.667h7.75v1.25h-7.75z"/><g><defs><path id="q" d="M0 22.999h78.475v67.759H0z"/></defs><clipPath id="r"><use xlink:href="#q" overflow="visible"/></clipPath><path clip-path="url(#r)" fill="#E5F1FF" d="M25.833 70.383h7.75v1.25h-7.75z"/></g><g><defs><path id="s" d="M0 22.999h78.475v67.759H0z"/></defs><clipPath id="t"><use xlink:href="#s" overflow="visible"/></clipPath><path clip-path="url(#t)" fill="#E5F1FF" d="M25.833 75.1h7.75v1.25h-7.75z"/></g><g><defs><path id="u" d="M0 22.999h78.475v67.759H0z"/></defs><clipPath id="v"><use xlink:href="#u" overflow="visible"/></clipPath><path clip-path="url(#v)" fill="#E5F1FF" d="M23.167 22.999H24v10.466h-.833z"/></g><g><defs><path id="w" d="M0 22.999h78.475v67.759H0z"/></defs><clipPath id="x"><use xlink:href="#w" overflow="visible"/></clipPath><path clip-path="url(#x)" fill="none" stroke="#FFF" stroke-linecap="round" stroke-linejoin="round" stroke-miterlimit="10" d="M57.105 60.958v10.675"/></g><g><defs><path id="y" d="M0 22.999h78.475v67.759H0z"/></defs><clipPath id="z"><use xlink:href="#y" overflow="visible"/></clipPath><path clip-path="url(#z)" fill="none" stroke="#6B6D70" stroke-linecap="round" stroke-linejoin="round" stroke-miterlimit="10" d="M57.105 47.167v14.06"/></g><g><defs><path id="A" d="M0 22.999h78.475v67.759H0z"/></defs><clipPath id="B"><use xlink:href="#A" overflow="visible"/></clipPath><path clip-path="url(#B)" fill="#878A8E" d="M59.376 63.228a2.272 2.272 0 1 1-4.544-.002 2.272 2.272 0 0 1 4.544.002"/></g><g><defs><path id="C" d="M0 22.999h78.475v67.759H0z"/></defs><clipPath id="D"><use xlink:href="#C" overflow="visible"/></clipPath><circle clip-path="url(#D)" fill="none" stroke="#64D2AF" stroke-linecap="round" stroke-linejoin="round" stroke-miterlimit="10" cx="57.105" cy="63.228" r="2.271"/></g><g><defs><path id="E" d="M0 22.999h78.475v67.759H0z"/></defs><clipPath id="F"><use xlink:href="#E" overflow="visible"/></clipPath><path clip-path="url(#F)" fill="none" stroke="#FFF" stroke-linecap="round" stroke-linejoin="round" stroke-miterlimit="10" d="M65.856 57.311v14.322"/></g><g><defs><path id="G" d="M0 22.999h78.475v67.759H0z"/></defs><clipPath id="H"><use xlink:href="#G" overflow="visible"/></clipPath><path clip-path="url(#H)" fill="none" stroke="#6B6D70" stroke-linecap="round" stroke-linejoin="round" stroke-miterlimit="10" d="M65.856 47.167v9.25"/></g><g><defs><path id="I" d="M0 22.999h78.475v67.759H0z"/></defs><clipPath id="J"><use xlink:href="#I" overflow="visible"/></clipPath><path clip-path="url(#J)" fill="#878A8E" d="M68.128 55.124c0 1.254-1.019 2.271-2.271 2.271s-2.271-1.018-2.271-2.271a2.271 2.271 0 0 1 4.542 0"/></g><g><defs><path id="K" d="M0 22.999h78.475v67.759H0z"/></defs><clipPath id="L"><use xlink:href="#K" overflow="visible"/></clipPath><circle clip-path="url(#L)" fill="none" stroke="#64D2AF" stroke-linecap="round" stroke-linejoin="round" stroke-miterlimit="10" cx="65.857" cy="55.124" r="2.271"/></g><g><defs><path id="M" d="M0 22.999h78.475v67.759H0z"/></defs><clipPath id="N"><use xlink:href="#M" overflow="visible"/></clipPath><path clip-path="url(#N)" fill="none" stroke="#FFF" stroke-linecap="round" stroke-linejoin="round" stroke-miterlimit="10" d="M74.608 60.958v10.675"/></g><g><defs><path id="O" d="M0 22.999h78.475v67.759H0z"/></defs><clipPath id="P"><use xlink:href="#O" overflow="visible"/></clipPath><path clip-path="url(#P)" fill="none" stroke="#6B6D70" stroke-linecap="round" stroke-linejoin="round" stroke-miterlimit="10" d="M74.608 47.167v12.685"/></g><g><defs><path id="Q" d="M0 22.999h78.475v67.759H0z"/></defs><clipPath id="R"><use xlink:href="#Q" overflow="visible"/></clipPath><path clip-path="url(#R)" fill="#878A8E" d="M76.879 61.228a2.272 2.272 0 0 1-4.542 0 2.272 2.272 0 0 1 4.542 0"/></g><g><defs><path id="S" d="M0 22.999h78.475v67.759H0z"/></defs><clipPath id="T"><use xlink:href="#S" overflow="visible"/></clipPath><circle clip-path="url(#T)" fill="none" stroke="#64D2AF" stroke-linecap="round" stroke-linejoin="round" stroke-miterlimit="10" cx="74.608" cy="61.228" r="2.271"/></g></svg>