<svg xmlns="http://www.w3.org/2000/svg" width="350" height="70" viewBox="0 0 350 70"><path fill="none" d="M37.334.531C18.329.531 2.866 15.993 2.866 34.999c0 19.009 15.463 34.47 34.468 34.47 19.009 0 34.471-15.467 34.471-34.47C71.804 15.995 56.338.531 37.334.531zm0 66.709c-17.778 0-32.245-14.465-32.245-32.241 0-17.778 14.466-32.242 32.245-32.242 17.776 0 32.242 14.464 32.242 32.242 0 17.776-14.465 32.241-32.242 32.241z"/><path fill="#64D2AF" d="M36.754 26.371c0-1.278.256-1.783 1.492-1.783h3.49v-5.616h-4.469c-4.807 0-6.973 2.115-6.973 6.165v4.316h-3.358v5.481h3.358v16.107h6.458V34.872h4.511l.477-5.416h-4.986v-3.085z"/><path fill="none" d="M244.198.531c-19.003 0-34.47 15.462-34.47 34.468 0 19.009 15.467 34.47 34.47 34.47 19.01 0 34.469-15.463 34.469-34.47C278.666 15.993 263.202.531 244.198.531zm0 66.709c-17.776 0-32.24-14.465-32.24-32.241 0-17.778 14.464-32.242 32.24-32.242 17.781 0 32.243 14.464 32.243 32.242.001 17.776-14.465 32.241-32.243 32.241z"/><path fill="#64D2AF" d="M233.58 22.994l-.024 4.173-.396.025c-.223.016-.454-.017-.519-.074-.1-.082-.115-.739-.115-4.108 0-4.56.082-4.125-.74-3.87l-.453.148-.041 3.935-.041 3.943-.437.025c-.255.016-.493-.017-.56-.074-.098-.082-.115-.674-.115-3.574 0-3.204-.009-3.483-.141-3.483-.073 0-.493.361-.938.805-.706.715-.847.913-1.209 1.668-.69 1.412-.7 1.445-.731 4.69l-.042 2.859h5.521c3.036 0 5.521-.033 5.521-.065 0-.107.98-.88 1.573-1.232a9.162 9.162 0 0 1 2.427-1.011c1.078-.279 2.796-.271 3.907.024 1.317.354 2.608 1.02 3.587 1.849l.512.436h10.967l-.032-2.9c-.032-2.703-.05-2.933-.223-3.507-.346-1.167-.766-1.84-1.769-2.843-1.004-.994-1.671-1.414-2.848-1.774l-.617-.189-9.849-.024-9.856-.024-.018 4.173-.024 4.173-.396.025c-.221.016-.451-.017-.518-.074-.098-.082-.115-.748-.115-4.19v-4.1h-1.233l-.015 4.165zm23.63-1.003c.141.074.32.271.411.452.148.296.165.485.165 2.276 0 2.826.091 2.736-2.707 2.736-2.123 0-2.378-.058-2.649-.592-.157-.304-.165-.452-.141-2.374l.024-2.062.305-.279.312-.279h2.016c1.656-.001 2.067.024 2.264.122zm-14.11 7.328c-2.896.403-5.25 2.72-5.72 5.637-.14.846-.065 2.218.165 3.016.321 1.126.758 1.832 1.729 2.793.962.97 1.586 1.373 2.565 1.685 3.85 1.216 7.8-.92 8.796-4.765.223-.854.238-2.465.041-3.247-.362-1.404-.807-2.168-1.901-3.244-1.061-1.06-1.975-1.537-3.397-1.816-.567-.108-1.703-.141-2.278-.059zm1.808 2.038c.643.132 1.926.74 2.304 1.093.667.616 1.21 1.504 1.489 2.448.207.674.183 1.792-.04 2.498-.625 1.979-2.519 3.394-4.533 3.394-.741 0-1.309-.148-2.14-.543-1.605-.756-2.657-2.439-2.657-4.248-.008-2.209 1.597-4.157 3.818-4.634.69-.156 1.061-.156 1.759-.008zm-17.795 7.823l.024 8.281.189.616c.361 1.175.781 1.84 1.777 2.844 1.021 1.009 1.702 1.429 2.896 1.772l.649.189h22.793l.648-.189c1.31-.377 2.223-.942 3.202-1.987.684-.723 1.242-1.692 1.555-2.711l.19-.616.024-8.24.025-8.233h-5.07c-4.41 0-5.061.017-5.061.123 0 .066.132.329.297.576a8.332 8.332 0 0 1 .411 8.167c-1.333 2.645-3.785 4.347-6.772 4.691-2.401.278-5.182-.757-6.911-2.58-.691-.724-1.078-1.298-1.587-2.375-.6-1.24-.773-2.045-.773-3.509 0-.961.033-1.33.181-1.922.214-.863.608-1.799 1.028-2.457.165-.263.305-.525.305-.592 0-.106-.643-.123-5.019-.123h-5.027l.026 8.275z"/><path fill="none" d="M106.29.531c-19.004 0-34.473 15.462-34.473 34.468 0 19.009 15.469 34.47 34.473 34.47 19.01 0 34.468-15.469 34.468-34.47 0-19.004-15.463-34.468-34.468-34.468zm0 66.709c-17.777 0-32.244-14.465-32.244-32.241 0-17.778 14.467-32.242 32.244-32.242 17.776 0 32.238 14.464 32.238 32.242.001 17.776-14.461 32.241-32.238 32.241z"/><path fill="#64D2AF" d="M124.085 20.255a15.51 15.51 0 0 1-4.91 1.875 7.713 7.713 0 0 0-5.645-2.439c-4.987 0-8.653 4.655-7.523 9.492-6.423-.323-12.12-3.401-15.938-8.077-2.022 3.473-1.046 8.016 2.396 10.315a7.658 7.658 0 0 1-3.5-.967c-.08 3.582 2.481 6.931 6.201 7.679a7.714 7.714 0 0 1-3.492.131 7.739 7.739 0 0 0 7.223 5.371 15.527 15.527 0 0 1-11.443 3.201 21.88 21.88 0 0 0 11.847 3.473c14.351 0 22.46-12.121 21.972-22.99a15.678 15.678 0 0 0 3.857-4.001 15.485 15.485 0 0 1-4.438 1.214 7.751 7.751 0 0 0 3.393-4.277z"/><g><path fill="none" d="M175.243.531c-19.005 0-34.471 15.462-34.471 34.468 0 19.009 15.469 34.47 34.471 34.47 19.008 0 34.468-15.467 34.468-34.47 0-19.004-15.46-34.468-34.468-34.468zm0 66.709c-17.778 0-32.242-14.465-32.242-32.241 0-17.778 14.467-32.242 32.242-32.242 17.776 0 32.242 14.464 32.242 32.242.001 17.776-14.465 32.241-32.242 32.241z"/><path fill="#64D2AF" d="M182.002 32.131H167.59v5.979h8.353c-.645 3.598-3.768 6.227-8.353 6.227-5.056 0-9.165-4.283-9.165-9.338 0-5.061 4.107-9.33 9.165-9.33 2.278 0 4.317.786 5.929 2.317v.011l4.314-4.317c-2.65-2.47-6.105-3.993-10.245-3.993-8.471 0-15.324 6.854-15.324 15.32 0 8.467 6.854 15.32 15.326 15.32 8.851 0 14.707-6.219 14.707-14.975a17.378 17.378 0 0 0-.295-3.221zM193.448 33.091v-4.787h-3.833v4.787h-4.79v3.833h4.79v4.787h3.833v-4.787h4.785v-3.833z"/></g><g><path fill="none" d="M313.137.531c-19.004 0-34.471 15.462-34.471 34.47 0 19.009 15.467 34.468 34.471 34.468 19.011 0 34.468-15.464 34.468-34.468S332.143.531 313.137.531zm0 66.715c-17.78 0-32.244-14.467-32.244-32.244s14.464-32.241 32.244-32.241c17.779 0 32.241 14.463 32.241 32.241 0 17.777-14.462 32.244-32.241 32.244z"/><path fill="#64D2AF" d="M329.83 20.093h-33.377a3.39 3.39 0 0 0-3.383 3.396v23.038c0 1.88 1.517 3.4 3.383 3.4h33.377a3.394 3.394 0 0 0 3.386-3.4V23.486a3.39 3.39 0 0 0-3.386-3.393zm-24.095 20.055l-6.666 5.662a1.321 1.321 0 0 1-1.861-.154 1.335 1.335 0 0 1 .149-1.867l6.666-5.668a1.324 1.324 0 0 1 1.865.156 1.33 1.33 0 0 1-.153 1.871zm7.288-.527h-.069c-.32 0-.647-.117-.907-.355L297.94 26.297a1.368 1.368 0 0 1-.084-1.92 1.35 1.35 0 0 1 1.911-.085l13.221 12.153 13.223-12.153a1.347 1.347 0 0 1 1.907.085 1.366 1.366 0 0 1-.086 1.92l-14.104 12.969a1.32 1.32 0 0 1-.905.355zm15.778 6.031a1.319 1.319 0 0 1-1.866.152l-6.666-5.662a1.324 1.324 0 0 1-.153-1.869 1.313 1.313 0 0 1 1.86-.152l6.666 5.66c.552.476.629 1.308.159 1.871z"/></g></svg>