<?xml version="1.0" encoding="utf-8"?>
<!-- Generator: Adobe Illustrator 16.0.0, SVG Export Plug-In . SVG Version: 6.00 Build 0)  -->
<!DOCTYPE svg PUBLIC "-//W3C//DTD SVG 1.1//EN" "http://www.w3.org/Graphics/SVG/1.1/DTD/svg11.dtd">
<svg version="1.1" id="Calque_1" xmlns="http://www.w3.org/2000/svg" xmlns:xlink="http://www.w3.org/1999/xlink" x="0px" y="0px"
	 width="350px" height="70px" viewBox="0 0 350 70" enable-background="new 0 0 350 70" xml:space="preserve">
<g>
	<path fill="none" d="M37.334,0.531c-19.005,0-34.468,15.462-34.468,34.468c0,19.009,15.463,34.47,34.468,34.47
		c19.009,0,34.471-15.467,34.471-34.47C71.804,15.995,56.338,0.531,37.334,0.531z M37.334,67.24
		c-17.778,0-32.245-14.465-32.245-32.241c0-17.778,14.466-32.242,32.245-32.242c17.776,0,32.242,14.464,32.242,32.242
		C69.576,52.775,55.111,67.24,37.334,67.24z"/>
	<path fill="#64D2AF" d="M36.754,26.371c0-1.278,0.256-1.783,1.492-1.783c0.988,0,3.49,0,3.49,0v-5.616c0,0-3.687,0-4.469,0
		c-4.807,0-6.973,2.115-6.973,6.165c0,3.529,0,4.316,0,4.316h-3.358v5.481h3.358v16.107h6.458V34.872h4.511l0.477-5.416h-4.986
		C36.754,29.456,36.754,27.432,36.754,26.371z"/>
</g>
<g>
	<path fill="none" d="M244.198,0.531c-19.003,0-34.47,15.462-34.47,34.468c0,19.009,15.467,34.47,34.47,34.47
		c19.01,0,34.469-15.463,34.469-34.47C278.666,15.993,263.202,0.531,244.198,0.531z M244.198,67.24
		c-17.776,0-32.24-14.465-32.24-32.241c0-17.778,14.464-32.242,32.24-32.242c17.781,0,32.243,14.464,32.243,32.242
		C276.442,52.775,261.976,67.24,244.198,67.24z"/>
	<path id="g6" fill="#64D2AF" d="M233.58,22.994l-0.024,4.173l-0.396,0.025c-0.223,0.016-0.454-0.017-0.519-0.074
		c-0.1-0.082-0.115-0.739-0.115-4.108c0-4.56,0.082-4.125-0.74-3.87l-0.453,0.148l-0.041,3.935l-0.041,3.943l-0.437,0.025
		c-0.255,0.016-0.493-0.017-0.56-0.074c-0.098-0.082-0.115-0.674-0.115-3.574c0-3.204-0.009-3.483-0.141-3.483
		c-0.073,0-0.493,0.361-0.938,0.805c-0.706,0.715-0.847,0.913-1.209,1.668c-0.69,1.412-0.7,1.445-0.731,4.69l-0.042,2.859h5.521
		c3.036,0,5.521-0.033,5.521-0.065c0-0.107,0.98-0.88,1.573-1.232c0.715-0.436,1.547-0.78,2.427-1.011
		c1.078-0.279,2.796-0.271,3.907,0.024c1.317,0.354,2.608,1.02,3.587,1.849l0.512,0.436h5.479h5.488l-0.032-2.9
		c-0.032-2.703-0.05-2.933-0.223-3.507c-0.346-1.167-0.766-1.84-1.769-2.843c-1.004-0.994-1.671-1.414-2.848-1.774l-0.617-0.189
		l-9.849-0.024l-9.856-0.024l-0.018,4.173l-0.024,4.173l-0.396,0.025c-0.221,0.016-0.451-0.017-0.518-0.074
		c-0.098-0.082-0.115-0.748-0.115-4.19v-4.1h-0.616h-0.617L233.58,22.994z M257.21,21.991c0.141,0.074,0.32,0.271,0.411,0.452
		c0.148,0.296,0.165,0.485,0.165,2.276c0,2.826,0.091,2.736-2.707,2.736c-2.123,0-2.378-0.058-2.649-0.592
		c-0.157-0.304-0.165-0.452-0.141-2.374l0.024-2.062l0.305-0.279l0.312-0.279h2.016C256.602,21.868,257.013,21.893,257.21,21.991z
		 M243.1,29.319c-2.896,0.403-5.25,2.72-5.72,5.637c-0.14,0.846-0.065,2.218,0.165,3.016c0.321,1.126,0.758,1.832,1.729,2.793
		c0.962,0.97,1.586,1.373,2.565,1.685c3.85,1.216,7.8-0.92,8.796-4.765c0.223-0.854,0.238-2.465,0.041-3.247
		c-0.362-1.404-0.807-2.168-1.901-3.244c-1.061-1.06-1.975-1.537-3.397-1.816C244.811,29.27,243.675,29.237,243.1,29.319z
		 M244.908,31.357c0.643,0.132,1.926,0.74,2.304,1.093c0.667,0.616,1.21,1.504,1.489,2.448c0.207,0.674,0.183,1.792-0.04,2.498
		c-0.625,1.979-2.519,3.394-4.533,3.394c-0.741,0-1.309-0.148-2.14-0.543c-1.605-0.756-2.657-2.439-2.657-4.248
		c-0.008-2.209,1.597-4.157,3.818-4.634C243.839,31.209,244.21,31.209,244.908,31.357z M227.113,39.18l0.024,8.281l0.189,0.616
		c0.361,1.175,0.781,1.84,1.777,2.844c1.021,1.009,1.702,1.429,2.896,1.772l0.649,0.189h11.397h11.396l0.648-0.189
		c1.31-0.377,2.223-0.942,3.202-1.987c0.684-0.723,1.242-1.692,1.555-2.711l0.19-0.616l0.024-8.24l0.025-8.233h-5.07
		c-4.41,0-5.061,0.017-5.061,0.123c0,0.066,0.132,0.329,0.297,0.576c1.555,2.44,1.711,5.57,0.411,8.167
		c-1.333,2.645-3.785,4.347-6.772,4.691c-2.401,0.278-5.182-0.757-6.911-2.58c-0.691-0.724-1.078-1.298-1.587-2.375
		c-0.6-1.24-0.773-2.045-0.773-3.509c0-0.961,0.033-1.33,0.181-1.922c0.214-0.863,0.608-1.799,1.028-2.457
		c0.165-0.263,0.305-0.525,0.305-0.592c0-0.106-0.643-0.123-5.019-0.123h-5.027L227.113,39.18z"/>
</g>
<g>
	<path fill="none" d="M106.29,0.531c-19.004,0-34.473,15.462-34.473,34.468c0,19.009,15.469,34.47,34.473,34.47
		c19.01,0,34.468-15.469,34.468-34.47C140.758,15.995,125.295,0.531,106.29,0.531z M106.29,67.24
		c-17.777,0-32.244-14.465-32.244-32.241c0-17.778,14.467-32.242,32.244-32.242c17.776,0,32.238,14.464,32.238,32.242
		C138.529,52.775,124.067,67.24,106.29,67.24z"/>
	<path fill="#64D2AF" d="M124.085,20.255c-1.494,0.884-3.146,1.528-4.91,1.875c-1.405-1.501-3.417-2.439-5.645-2.439
		c-4.987,0-8.653,4.655-7.523,9.492c-6.423-0.323-12.12-3.401-15.938-8.077c-2.022,3.473-1.046,8.016,2.396,10.315
		c-1.264-0.039-2.46-0.386-3.5-0.967c-0.08,3.582,2.481,6.931,6.201,7.679c-1.086,0.297-2.28,0.364-3.492,0.131
		c0.984,3.072,3.839,5.31,7.223,5.371c-3.25,2.549-7.343,3.686-11.443,3.201c3.421,2.193,7.484,3.473,11.847,3.473
		c14.351,0,22.46-12.121,21.972-22.99c1.51-1.09,2.821-2.449,3.857-4.001c-1.391,0.613-2.875,1.029-4.438,1.214
		C122.285,23.573,123.511,22.06,124.085,20.255z"/>
</g>
<g>
	<path fill="none" d="M175.243,0.531c-19.005,0-34.471,15.462-34.471,34.468c0,19.009,15.469,34.47,34.471,34.47
		c19.008,0,34.468-15.467,34.468-34.47C209.711,15.995,194.251,0.531,175.243,0.531z M175.243,67.24
		c-17.778,0-32.242-14.465-32.242-32.241c0-17.778,14.467-32.242,32.242-32.242c17.776,0,32.242,14.464,32.242,32.242
		C207.486,52.775,193.02,67.24,175.243,67.24z"/>
	<path fill="#64D2AF" d="M182.002,32.131H167.59v5.979h8.353c-0.645,3.598-3.768,6.227-8.353,6.227
		c-5.056,0-9.165-4.283-9.165-9.338c0-5.061,4.107-9.33,9.165-9.33c2.278,0,4.317,0.786,5.929,2.317v0.011l4.314-4.317
		c-2.65-2.47-6.105-3.993-10.245-3.993c-8.471,0-15.324,6.854-15.324,15.32c0,8.467,6.854,15.32,15.326,15.32
		c8.851,0,14.707-6.219,14.707-14.975C182.298,34.229,182.194,33.157,182.002,32.131L182.002,32.131z"/>
	<polygon fill="#64D2AF" points="193.448,33.091 193.448,28.304 189.615,28.304 189.615,33.091 184.825,33.091 184.825,36.924 
		189.615,36.924 189.615,41.711 193.448,41.711 193.448,36.924 198.233,36.924 198.233,33.091 	"/>
</g>
<g>
	<path fill="none" d="M313.137,0.531c-19.004,0-34.471,15.462-34.471,34.47c0,19.009,15.467,34.468,34.471,34.468
		c19.011,0,34.468-15.464,34.468-34.468S332.143,0.531,313.137,0.531z M313.137,67.246c-17.78,0-32.244-14.467-32.244-32.244
		c0-17.777,14.464-32.241,32.244-32.241c17.779,0,32.241,14.463,32.241,32.241C345.378,52.779,330.916,67.246,313.137,67.246z"/>
	<path fill="#64D2AF" d="M329.83,20.093h-33.377c-1.866,0-3.383,1.519-3.383,3.396v23.038c0,1.88,1.517,3.4,3.383,3.4h33.377
		c1.868,0,3.386-1.521,3.386-3.4V23.486C333.213,21.609,331.698,20.093,329.83,20.093z M305.735,40.148l-6.666,5.662
		c-0.558,0.471-1.39,0.402-1.861-0.154c-0.471-0.562-0.399-1.398,0.149-1.867l6.666-5.668c0.562-0.469,1.389-0.404,1.865,0.156
		C306.36,38.837,306.293,39.674,305.735,40.148z M313.023,39.621c-0.012,0-0.022,0-0.036,0s-0.021,0-0.033,0
		c-0.32,0-0.647-0.117-0.907-0.355L297.94,26.297c-0.548-0.509-0.587-1.366-0.084-1.92c0.507-0.552,1.363-0.592,1.911-0.085
		l13.221,12.153l13.223-12.153c0.546-0.505,1.4-0.467,1.907,0.085c0.498,0.557,0.469,1.414-0.086,1.92l-14.104,12.969
		C313.675,39.503,313.349,39.621,313.023,39.621z M328.801,45.652c-0.479,0.562-1.311,0.627-1.866,0.152l-6.666-5.662
		c-0.562-0.47-0.625-1.312-0.153-1.869c0.476-0.559,1.312-0.629,1.86-0.152l6.666,5.66
		C329.194,44.257,329.271,45.089,328.801,45.652z"/>
</g>
</svg>
