<?xml version="1.0" encoding="utf-8"?>
<!-- Generator: Adobe Illustrator 16.0.0, SVG Export Plug-In . SVG Version: 6.00 Build 0)  -->
<!DOCTYPE svg PUBLIC "-//W3C//DTD SVG 1.1//EN" "http://www.w3.org/Graphics/SVG/1.1/DTD/svg11.dtd">
<svg version="1.1" id="Calque_1" xmlns="http://www.w3.org/2000/svg" xmlns:xlink="http://www.w3.org/1999/xlink" x="0px" y="0px"
	 width="303.467px" height="107.597px" viewBox="0 0 303.467 107.597" enable-background="new 0 0 303.467 107.597"
	 xml:space="preserve">
<polygon fill="#64D2AF" points="60.521,0 48.86,3.961 48.86,18.481 32.355,18.481 32.355,0 20.694,3.961 20.694,18.481 0,18.481 
	0,30.143 20.694,30.143 20.694,49.173 32.355,49.173 32.355,30.143 48.86,30.143 48.86,49.173 60.521,49.173 "/>
<polygon fill="#444444" points="87.059,32.491 97.378,32.491 97.378,24.371 87.059,24.371 87.059,16.351 99.179,16.351 
	99.179,8.172 77.799,8.172 77.799,49.17 99.659,49.17 99.659,40.991 87.059,40.991 "/>
<path fill="#444444" d="M137.202,8.172h-10.088L112.941,49.17h9.252l3-9.419h13.931l3,9.419h9.252L137.202,8.172z M127.528,32.351
	l4.63-15.574l4.63,15.574H127.528z"/>
<polygon fill="#444444" points="174.118,8.172 164.858,8.172 164.858,49.17 186.718,49.17 186.718,40.99 174.118,40.99 "/>
<polygon fill="#444444" points="203.619,49.17 212.879,49.17 212.879,16.352 221.938,16.352 221.938,8.172 194.559,8.172 
	194.559,16.352 203.619,16.352 "/>
<polygon fill="#444444" points="259.03,49.17 268.29,49.17 268.29,8.172 259.03,8.172 259.03,24.491 243.031,24.491 243.031,8.172 
	233.771,8.172 233.771,49.17 243.031,49.17 243.031,32.731 259.03,32.731 "/>
<polygon fill="#444444" points="20.653,65.82 20.653,106.818 29.913,106.818 29.913,90.799 40.352,90.799 40.352,82.678 
	29.913,82.678 29.913,73.999 41.853,73.999 41.853,65.82 "/>
<path fill="#444444" d="M70.453,74.424l4.63,15.574h-9.261L70.453,74.424z M65.408,65.82l-14.174,40.998h9.253l3-9.42h13.93l3,9.42
	h9.252L75.496,65.82H65.408z"/>
<g>
	<defs>
		<rect id="SVGID_1_" width="303.467" height="107.597"/>
	</defs>
	<clipPath id="SVGID_2_">
		<use xlink:href="#SVGID_1_"  overflow="visible"/>
	</clipPath>
	<path clip-path="url(#SVGID_2_)" fill="#444444" d="M119.732,98.998c-8.506,0-12.38-6.604-12.38-12.739
		c0-7.43,5.091-12.619,12.38-12.619c3.758,0,6.91,1.533,8.722,2.664l2.566-8.017c-3.305-2.155-7.222-3.247-11.648-3.247
		c-12.574,0-21.699,8.924-21.699,21.219c0,12.564,8.923,21.339,21.699,21.339c5.584,0,9.474-1.719,11.828-3.245l-2.566-8.02
		C126.997,97.344,123.708,98.998,119.732,98.998"/>
	<polygon clip-path="url(#SVGID_2_)" fill="#444444" points="151.072,106.818 160.332,106.818 160.332,73.999 169.392,73.999 
		169.392,65.82 142.012,65.82 142.012,73.999 151.072,73.999 	"/>
	<path clip-path="url(#SVGID_2_)" fill="#444444" d="M199.891,65.04c-12.469,0-21.52,8.924-21.52,21.219
		c0,12.564,8.85,21.339,21.52,21.339s21.52-8.774,21.52-21.339C221.41,73.963,212.36,65.04,199.891,65.04 M199.891,98.998
		c-6.86,0-11.839-5.357-11.839-12.739c0-7.312,4.979-12.619,11.839-12.619s11.84,5.307,11.84,12.619
		C211.73,93.64,206.751,98.998,199.891,98.998"/>
	<path clip-path="url(#SVGID_2_)" fill="#444444" d="M255.153,89.122l0.438-0.241c3.481-1.904,5.56-5.89,5.56-10.66
		c0-8.229-4.777-12.4-14.199-12.4h-13.18v40.998h9.26v-15.54h3.934l7.499,15.54h10.189c-8.813-16.432-9.24-17.222-9.26-17.258
		L255.153,89.122z M246.591,83.699h-3.56v-10.06h3.08c3.728,0,5.539,1.615,5.539,4.939C251.65,81.737,249.712,83.699,246.591,83.699
		"/>
	<polygon clip-path="url(#SVGID_2_)" fill="#444444" points="293.293,65.82 286.372,80.227 279.641,65.82 269.29,65.82 
		281.778,88.229 281.778,106.818 290.979,106.818 290.979,88.229 291.042,88.116 303.467,65.82 	"/>
</g>
</svg>
