<svg xmlns="http://www.w3.org/2000/svg" xmlns:xlink="http://www.w3.org/1999/xlink" width="303.467" height="107.597" viewBox="0 0 303.467 107.597"><path fill="#64D2AF" d="M60.521 0L48.86 3.961v14.52H32.355V0L20.694 3.961v14.52H0v11.662h20.694v19.03h11.661v-19.03H48.86v19.03h11.661z"/><path fill="#444" d="M87.059 32.491h10.319v-8.12H87.059v-8.02h12.12V8.172h-21.38V49.17h21.86v-8.179h-12.6zM137.202 8.172h-10.088L112.941 49.17h9.252l3-9.419h13.931l3 9.419h9.252L137.202 8.172zm-9.674 24.179l4.63-15.574 4.63 15.574h-9.26zM174.118 8.172h-9.26V49.17h21.86v-8.18h-12.6zM203.619 49.17h9.26V16.352h9.059v-8.18h-27.379v8.18h9.06zM259.03 49.17h9.26V8.172h-9.26v16.319h-15.999V8.172h-9.26V49.17h9.26V32.731h15.999zM20.653 65.82v40.998h9.26V90.799h10.439v-8.121H29.913v-8.679h11.94V65.82zM70.453 74.424l4.63 15.574h-9.261l4.631-15.574zm-5.045-8.604l-14.174 40.998h9.253l3-9.42h13.93l3 9.42h9.252L75.496 65.82H65.408z"/><defs><path id="a" d="M0 0h303.467v107.597H0z"/></defs><clipPath id="b"><use xlink:href="#a" overflow="visible"/></clipPath><path clip-path="url(#b)" fill="#444" d="M119.732 98.998c-8.506 0-12.38-6.604-12.38-12.739 0-7.43 5.091-12.619 12.38-12.619 3.758 0 6.91 1.533 8.722 2.664l2.566-8.017c-3.305-2.155-7.222-3.247-11.648-3.247-12.574 0-21.699 8.924-21.699 21.219 0 12.564 8.923 21.339 21.699 21.339 5.584 0 9.474-1.719 11.828-3.245l-2.566-8.02c-1.637 1.011-4.926 2.665-8.902 2.665M151.072 106.818h9.26V73.999h9.06V65.82h-27.38v8.179h9.06zM199.891 65.04c-12.469 0-21.52 8.924-21.52 21.219 0 12.564 8.85 21.339 21.52 21.339s21.52-8.774 21.52-21.339c-.001-12.296-9.051-21.219-21.52-21.219m0 33.958c-6.86 0-11.839-5.357-11.839-12.739 0-7.312 4.979-12.619 11.839-12.619s11.84 5.307 11.84 12.619c-.001 7.381-4.98 12.739-11.84 12.739M255.153 89.122l.438-.241c3.481-1.904 5.56-5.89 5.56-10.66 0-8.229-4.777-12.4-14.199-12.4h-13.18v40.998h9.26v-15.54h3.934l7.499 15.54h10.189c-8.813-16.432-9.24-17.222-9.26-17.258l-.241-.439zm-8.562-5.423h-3.56v-10.06h3.08c3.728 0 5.539 1.615 5.539 4.939 0 3.159-1.938 5.121-5.059 5.121M293.293 65.82l-6.921 14.407-6.731-14.407H269.29l12.488 22.409v18.589h9.201V88.229l.063-.113 12.425-22.296z"/></svg>