<?xml version="1.0" encoding="utf-8"?>
<!-- Generator: Adobe Illustrator 16.0.0, SVG Export Plug-In . SVG Version: 6.00 Build 0)  -->
<!DOCTYPE svg PUBLIC "-//W3C//DTD SVG 1.1//EN" "http://www.w3.org/Graphics/SVG/1.1/DTD/svg11.dtd">
<svg version="1.1" id="Calque_1" xmlns="http://www.w3.org/2000/svg" xmlns:xlink="http://www.w3.org/1999/xlink" x="0px" y="0px"
	 width="592.801px" height="49.95px" viewBox="0 0 592.801 49.95" enable-background="new 0 0 592.801 49.95" xml:space="preserve">
<polygon fill="#64D2AF" points="60.521,0 48.86,3.961 48.86,18.481 32.355,18.481 32.355,0 20.694,3.961 20.694,18.481 0,18.481 
	0,30.143 20.694,30.143 20.694,49.173 32.355,49.173 32.355,30.143 48.86,30.143 48.86,49.173 60.521,49.173 "/>
<polygon fill="#FFFFFF" points="77.8,8.172 77.8,49.171 99.659,49.171 99.659,40.99 87.06,40.99 87.06,32.491 97.378,32.491 
	97.378,24.371 87.06,24.371 87.06,16.351 99.18,16.351 99.18,8.172 "/>
<path fill="#FFFFFF" d="M132.158,16.777l4.63,15.573h-9.26L132.158,16.777z M127.114,8.172l-14.173,40.999h9.252l3-9.42h13.931
	l2.999,9.42h9.252L137.202,8.172H127.114z"/>
<polygon fill="#FFFFFF" points="164.858,8.172 164.858,49.171 186.718,49.171 186.718,40.99 174.118,40.99 174.118,8.172 "/>
<polygon fill="#FFFFFF" points="194.559,8.172 194.559,16.351 203.618,16.351 203.618,49.171 212.879,49.171 212.879,16.351 
	221.938,16.351 221.938,8.172 "/>
<polygon fill="#FFFFFF" points="259.03,8.172 259.03,24.492 243.032,24.492 243.032,8.172 233.772,8.172 233.772,49.171 
	243.032,49.171 243.032,32.731 259.03,32.731 259.03,49.171 268.29,49.171 268.29,8.172 "/>
<polygon fill="#FFFFFF" points="309.987,8.173 309.987,49.171 319.247,49.171 319.247,33.152 329.686,33.152 329.686,25.031 
	319.247,25.031 319.247,16.351 331.186,16.351 331.186,8.173 "/>
<path fill="#FFFFFF" d="M359.786,16.777l4.63,15.575h-9.26L359.786,16.777z M354.742,8.173l-14.174,40.998h9.253l2.999-9.42h13.932
	l2.999,9.42h9.252L364.829,8.173H354.742z"/>
<path fill="#FFFFFF" d="M409.066,41.351c-8.506,0-12.38-6.604-12.38-12.739c0-7.43,5.091-12.619,12.38-12.619
	c3.758,0,6.91,1.533,8.722,2.664l2.566-8.017c-3.305-2.155-7.222-3.247-11.648-3.247c-12.573,0-21.698,8.924-21.698,21.219
	c0,12.564,8.923,21.339,21.698,21.339c5.584,0,9.475-1.719,11.828-3.245l-2.565-8.02C416.33,39.697,413.042,41.351,409.066,41.351"
	/>
<polygon fill="#FFFFFF" points="440.406,49.171 449.666,49.171 449.666,16.352 458.726,16.352 458.726,8.173 431.346,8.173 
	431.346,16.352 440.406,16.352 "/>
<path fill="#FFFFFF" d="M489.225,7.393c-12.469,0-21.519,8.924-21.519,21.219c0,12.564,8.849,21.339,21.519,21.339
	s21.52-8.774,21.52-21.339C510.744,16.316,501.694,7.393,489.225,7.393 M489.225,41.351c-6.86,0-11.839-5.357-11.839-12.739
	c0-7.312,4.979-12.619,11.839-12.619s11.84,5.306,11.84,12.619C501.064,35.993,496.085,41.351,489.225,41.351"/>
<path fill="#FFFFFF" d="M544.487,31.475l0.438-0.241c3.48-1.904,5.56-5.89,5.56-10.661c0-8.228-4.777-12.4-14.199-12.4h-13.18
	v40.998h9.259v-15.54h3.935l7.499,15.54h10.189c-8.813-16.432-9.24-17.222-9.26-17.258L544.487,31.475z M535.925,26.052h-3.561
	v-10.06h3.081c3.728,0,5.539,1.616,5.539,4.94C540.984,24.09,539.046,26.052,535.925,26.052"/>
<polygon fill="#FFFFFF" points="582.627,8.173 575.706,22.58 568.975,8.173 558.624,8.173 571.112,30.582 571.112,49.171 
	580.312,49.171 580.312,30.582 580.376,30.469 592.801,8.173 "/>
</svg>
