<svg xmlns="http://www.w3.org/2000/svg" width="592.801" height="49.95" viewBox="0 0 592.801 49.95"><path fill="#64D2AF" d="M60.521 0L48.86 3.961v14.52H32.355V0L20.694 3.961v14.52H0v11.662h20.694v19.03h11.661v-19.03H48.86v19.03h11.661z"/><path fill="#FFF" d="M77.8 8.172v40.999h21.859V40.99H87.06v-8.499h10.318v-8.12H87.06v-8.02h12.12V8.172zM132.158 16.777l4.63 15.573h-9.26l4.63-15.573zm-5.044-8.605l-14.173 40.999h9.252l3-9.42h13.931l2.999 9.42h9.252L137.202 8.172h-10.088zM164.858 8.172v40.999h21.86V40.99h-12.6V8.172zM194.559 8.172v8.179h9.059v32.82h9.261v-32.82h9.059V8.172zM259.03 8.172v16.32h-15.998V8.172h-9.26v40.999h9.26v-16.44h15.998v16.44h9.26V8.172zM309.987 8.173v40.998h9.26V33.152h10.439v-8.121h-10.439v-8.68h11.939V8.173zM359.786 16.777l4.63 15.575h-9.26l4.63-15.575zm-5.044-8.604l-14.174 40.998h9.253l2.999-9.42h13.932l2.999 9.42h9.252L364.829 8.173h-10.087zM409.066 41.351c-8.506 0-12.38-6.604-12.38-12.739 0-7.43 5.091-12.619 12.38-12.619 3.758 0 6.91 1.533 8.722 2.664l2.566-8.017c-3.305-2.155-7.222-3.247-11.648-3.247-12.573 0-21.698 8.924-21.698 21.219 0 12.564 8.923 21.339 21.698 21.339 5.584 0 9.475-1.719 11.828-3.245l-2.565-8.02c-1.639 1.011-4.927 2.665-8.903 2.665M440.406 49.171h9.26V16.352h9.06V8.173h-27.38v8.179h9.06zM489.225 7.393c-12.469 0-21.519 8.924-21.519 21.219 0 12.564 8.849 21.339 21.519 21.339s21.52-8.774 21.52-21.339c-.001-12.296-9.051-21.219-21.52-21.219m0 33.958c-6.86 0-11.839-5.357-11.839-12.739 0-7.312 4.979-12.619 11.839-12.619s11.84 5.306 11.84 12.619c-.001 7.381-4.98 12.739-11.84 12.739M544.487 31.475l.438-.241c3.48-1.904 5.56-5.89 5.56-10.661 0-8.228-4.777-12.4-14.199-12.4h-13.18v40.998h9.259v-15.54h3.935l7.499 15.54h10.189c-8.813-16.432-9.24-17.222-9.26-17.258l-.241-.438zm-8.562-5.423h-3.561v-10.06h3.081c3.728 0 5.539 1.616 5.539 4.94 0 3.158-1.938 5.12-5.059 5.12M582.627 8.173l-6.921 14.407-6.731-14.407h-10.351l12.488 22.409v18.589h9.2V30.582l.064-.113 12.425-22.296z"/></svg>